# Blender v2.83.20 OBJ File: ''
# www.blender.org
mtllib DekuPierna.mtl
o nodes_30__meshes[5].002
v 0.194266 0.000010 3.272062
v 4.539653 0.000010 4.968117
v 0.380129 0.000010 4.968117
v 4.728649 0.000010 3.272062
v 4.111366 0.000011 1.327024
v 0.806314 0.000011 1.327020
v 3.910109 0.000010 6.092473
v 1.005123 0.000010 6.092473
v 3.818059 0.000011 -0.256773
v 1.091893 0.000011 -0.256773
v 2.467327 0.000010 6.541470
v 3.287082 -0.000079 -1.400947
v 1.618200 -0.000079 -1.400947
v 2.467327 -0.000113 -1.807041
v 2.447256 2.356134 -1.469543
v 3.251829 2.391635 -0.799694
v 3.054566 1.565172 -0.854066
v 3.874602 3.393008 -1.029431
v 2.457994 1.477358 -1.419223
v 2.447256 3.488788 -2.053839
v 1.847971 1.565172 -0.854066
v 1.027896 3.393008 -1.029431
v 1.642957 2.391635 -0.799694
v 3.160357 1.740569 0.066354
v 3.388003 2.507438 0.216190
v 1.716306 0.906881 -1.574923
v 3.187910 0.906881 -1.574923
v 2.457994 0.847551 -1.940570
v 1.505841 2.507438 0.216190
v 1.742742 1.740569 0.066354
v 3.981334 3.259202 0.827881
v 3.620597 1.003811 -0.397492
v 2.447256 1.996039 0.733993
v 3.174418 1.262535 0.655657
v 1.618200 -0.000079 -1.400947
v 1.284962 1.003811 -0.397492
v 1.091893 0.000011 -0.256773
v 0.920285 3.259202 0.827881
v 2.447256 2.581468 1.009054
v 2.447256 3.251776 1.904005
v 3.559490 0.987833 1.530623
v 2.447256 1.654839 1.128303
v 3.287082 -0.000079 -1.400947
v 3.818059 0.000011 -0.256773
v 2.467327 -0.000113 -1.807041
v 0.806314 0.000011 1.327020
v 1.728052 1.360572 0.655633
v 4.111366 0.000011 1.327024
v 2.447256 1.451153 2.214692
v 4.142996 1.384802 3.484976
v 1.348865 0.987833 1.530623
v 0.770416 1.384802 3.484976
v 0.194266 0.000010 3.272062
v 4.728649 0.000010 3.272062
v 2.445901 1.966861 4.323806
v 4.275879 1.089598 4.961519
v 0.638470 1.089598 4.961519
v 0.380129 0.000010 4.968117
v 4.539653 0.000010 4.968117
v 1.005123 0.000010 6.092473
v 2.451259 1.472747 5.913068
v 3.910109 0.000010 6.092473
v 2.467327 0.000010 6.541470
v 2.718926 3.991848 0.767186
v 2.992670 3.851254 0.075123
v 2.790206 3.628967 0.806439
v 1.990311 3.966286 0.676411
v 2.748107 4.014064 -0.650483
v 1.817458 3.843700 -0.042702
v 1.930649 3.616410 0.665340
v 3.077070 3.144234 0.002488
v 2.745210 3.144919 0.629103
v 1.817458 3.843700 -0.042702
v 2.100663 3.989809 -0.766214
v 2.876000 3.221655 -0.807567
v 2.093135 3.230070 -0.965607
v 1.968401 3.153398 0.470310
v 1.776785 3.154523 -0.190129
v 1.776785 3.154523 -0.190129
v 2.447256 3.488788 -2.053839
v 1.027896 3.393008 -1.029431
v 2.093135 3.230070 -0.965607
v 2.876000 3.221655 -0.807567
v 3.874602 3.393008 -1.029431
v 1.776785 3.154523 -0.190129
v 0.920285 3.259202 0.827881
v 3.077070 3.144234 0.002488
v 1.968401 3.153398 0.470310
v 2.447256 3.251776 1.904005
v 3.981334 3.259202 0.827881
v 2.745210 3.144919 0.629103
vt 0.687510 0.195307
vt 0.734383 0.296866
vt 0.734383 0.203119
vt 0.687510 0.304678
vt 0.632824 0.289054
vt 0.632824 0.210931
vt 0.757820 0.281242
vt 0.757820 0.218743
vt 0.585950 0.289054
vt 0.585950 0.210931
vt 0.773445 0.249992
vt 0.554701 0.273429
vt 0.554701 0.226556
vt 0.539077 0.249992
vt 0.992188 0.203119
vt 0.929690 0.210931
vt 0.929690 0.140621
vt 0.937502 0.304678
vt 0.992188 0.132809
vt 0.992188 0.304678
vt 0.929690 0.140621
vt 0.937502 0.304678
vt 0.929690 0.210931
vt 0.867192 0.164058
vt 0.875004 0.226556
vt 0.945315 0.085935
vt 0.945315 0.085935
vt 0.992188 0.085935
vt 0.875004 0.226556
vt 0.867192 0.164058
vt 0.867192 0.304678
vt 0.890629 0.093747
vt 0.804694 0.195307
vt 0.828130 0.132809
vt 0.953127 0.007812
vt 0.890629 0.093747
vt 0.882816 0.007812
vt 0.867192 0.304678
vt 0.804694 0.234368
vt 0.804694 0.304678
vt 0.781257 0.101559
vt 0.789069 0.171870
vt 0.953127 0.007812
vt 0.882816 0.007812
vt 0.992188 0.007812
vt 0.789069 0.007812
vt 0.828130 0.132809
vt 0.789069 0.007812
vt 0.750008 0.171870
vt 0.687510 0.124996
vt 0.781257 0.101559
vt 0.687510 0.124996
vt 0.710947 0.007812
vt 0.710947 0.007812
vt 0.625012 0.187494
vt 0.625012 0.101559
vt 0.625012 0.101559
vt 0.632824 0.007812
vt 0.632824 0.007812
vt 0.570326 0.007812
vt 0.546889 0.140621
vt 0.570326 0.007812
vt 0.507828 0.007812
vt 0.695322 0.382801
vt 0.695322 0.351552
vt 0.750008 0.359364
vt 0.625012 0.382801
vt 0.625012 0.351552
vt 0.750008 0.320303
vt 0.695322 0.320303
vt 0.570326 0.359364
vt 0.820318 0.367177
vt 0.820318 0.320303
vt 0.867192 0.320303
vt 0.867192 0.367177
vt 0.625012 0.320303
vt 0.570326 0.320303
vt 0.929690 0.320303
vt 0.929690 0.359364
vt 0.992188 0.429675
vt 0.992188 0.429675
vt 0.992188 0.320303
vt 0.992188 0.320303
vt 0.992188 0.429675
vt 0.992188 0.320303
vt 0.992188 0.429675
vt 0.992188 0.320303
vt 0.992188 0.320303
vt 0.992188 0.429675
vt 0.992188 0.429675
vt 0.992188 0.320303
vn 0.0000 -1.0000 -0.0000
vn 0.0000 -1.0000 0.0001
vn -0.0018 -0.3430 -0.9393
vn 0.8240 -0.3929 -0.4081
vn 0.8316 0.2947 -0.4708
vn 0.7370 -0.5342 -0.4142
vn 0.0069 0.4803 -0.8771
vn -0.0009 -0.4585 -0.8887
vn -0.8318 0.2898 -0.4734
vn -0.7391 -0.5302 -0.4154
vn -0.8237 -0.3946 -0.4071
vn 0.9459 0.1594 0.2827
vn 0.7794 -0.5579 0.2852
vn -0.6619 0.2973 -0.6881
vn 0.6636 0.2980 -0.6862
vn 0.0022 0.2278 -0.9737
vn -0.7799 -0.5581 0.2834
vn -0.9502 0.1727 0.2592
vn 0.6146 -0.7275 0.3049
vn 0.8980 0.4033 -0.1757
vn 0.0128 0.1804 0.9835
vn 0.6412 0.7412 0.1988
vn -0.7459 -0.0515 -0.6640
vn -0.9000 0.3961 -0.1818
vn -0.9552 0.1287 -0.2663
vn -0.6169 -0.7249 0.3065
vn -0.0005 -0.6961 0.7180
vn -0.0005 -0.8004 0.5995
vn 0.6488 0.7523 -0.1143
vn 0.0209 0.9309 0.3646
vn 0.7478 -0.0483 -0.6621
vn 0.9539 0.1317 -0.2696
vn 0.0104 -0.1555 -0.9878
vn -0.8872 0.4295 -0.1684
vn -0.6600 0.7187 0.2189
vn 0.8840 0.4352 -0.1708
vn -0.0016 0.9933 -0.1154
vn 0.6402 0.7583 -0.1233
vn -0.6620 0.7429 -0.0989
vn -0.6434 0.7555 -0.1235
vn -0.9193 0.3718 -0.1293
vn 0.9171 0.3769 -0.1295
vn -0.0021 0.9977 0.0674
vn 0.7228 0.6047 0.3345
vn -0.7256 0.6017 0.3338
vn -0.9312 0.2225 0.2885
vn 0.9297 0.2268 0.2903
vn -0.5418 0.4235 0.7261
vn -0.0013 0.7497 0.6617
vn 0.5408 0.4265 0.7250
vn 0.0032 0.3925 0.9198
vn 0.4394 0.1815 0.8798
vn 0.5095 -0.0562 0.8586
vn 0.9880 0.1490 0.0397
vn -0.6079 0.0941 0.7884
vn -0.6855 -0.1053 0.7205
vn 0.9968 0.0566 0.0558
vn 0.4413 -0.3582 0.8228
vn -0.9830 0.0560 0.1751
vn 0.6291 0.2572 -0.7335
vn 0.6810 0.2301 -0.6952
vn -0.4554 0.2204 -0.8626
vn -0.4828 0.2345 -0.8437
vn -0.6956 -0.3263 0.6400
vn -0.9769 -0.0562 0.2061
vn -0.9284 0.1166 -0.3528
vn -0.9321 0.1275 -0.3391
vn -0.0039 0.9692 0.2463
vn 0.1644 0.9724 0.1655
vn 0.0800 0.9718 0.2217
vn -0.1028 0.9751 0.1966
vn -0.1480 0.9762 0.1586
vn 0.1627 0.9838 0.0754
vn 0.1209 0.9924 -0.0213
vn -0.1465 0.9880 0.0491
vn 0.0674 0.9958 -0.0625
vn 0.0018 0.9958 -0.0911
vn -0.1240 0.9921 -0.0188
vn -0.0425 0.9961 -0.0773
g nodes_30__meshes[5].002_nodes_30__meshes[5].002_material1_005
usemtl material1_005
s off
f 1/1/1 2/2/1 3/3/1
f 1/1/1 4/4/1 2/2/1
f 1/1/1 5/5/1 4/4/1
f 1/1/1 6/6/1 5/5/1
f 3/3/1 2/2/1 7/7/1
f 3/3/1 7/7/1 8/8/1
f 6/6/1 9/9/1 5/5/1
f 6/6/1 10/10/1 9/9/1
f 7/7/1 11/11/1 8/8/1
f 10/10/2 12/12/2 9/9/2
f 10/10/2 13/13/2 12/12/2
f 13/13/2 14/14/2 12/12/2
s 1
f 15/15/3 16/16/4 17/17/5
f 15/15/3 18/18/6 16/16/4
f 15/15/3 17/17/5 19/19/7
f 15/15/3 20/20/8 18/18/6
f 15/15/3 19/19/7 21/21/9
f 15/15/3 22/22/10 20/20/8
f 15/15/3 21/21/9 23/23/11
f 15/15/3 23/23/11 22/22/10
f 16/16/4 24/24/12 17/17/5
f 16/16/4 18/18/6 25/25/13
f 16/16/4 25/25/13 24/24/12
f 19/19/7 26/26/14 21/21/9
f 19/19/7 17/17/5 27/27/15
f 19/19/7 28/28/16 26/26/14
f 19/19/7 27/27/15 28/28/16
f 23/23/11 29/29/17 22/22/10
f 23/23/11 21/21/9 30/30/18
f 23/23/11 30/30/18 29/29/17
f 18/18/6 31/31/19 25/25/13
f 24/24/12 32/32/20 17/17/5
f 24/24/12 25/25/13 33/33/21
f 24/24/12 34/34/22 32/32/20
f 24/24/12 33/33/21 34/34/22
f 17/17/5 32/32/20 27/27/15
f 26/26/14 28/28/16 35/35/23
f 26/26/14 36/36/24 21/21/9
f 26/26/14 35/35/23 37/37/25
f 26/26/14 37/37/25 36/36/24
f 21/21/9 36/36/24 30/30/18
f 22/22/10 29/29/17 38/38/26
f 31/31/19 39/39/27 25/25/13
f 31/31/19 40/40/28 39/39/27
f 39/39/27 29/29/17 33/33/21
f 39/39/27 40/40/28 38/38/26
f 39/39/27 33/33/21 25/25/13
f 39/39/27 38/38/26 29/29/17
f 29/29/17 30/30/18 33/33/21
f 34/34/22 41/41/29 32/32/20
f 34/34/22 33/33/21 42/42/30
f 34/34/22 42/42/30 41/41/29
f 27/27/15 43/43/31 28/28/16
f 27/27/15 32/32/20 44/44/32
f 27/27/15 44/44/32 43/43/31
f 35/35/23 28/28/16 45/45/33
f 45/45/33 28/28/16 43/43/31
f 37/37/25 46/46/34 36/36/24
f 30/30/18 47/47/35 33/33/21
f 30/30/18 36/36/24 47/47/35
f 33/33/21 47/47/35 42/42/30
f 41/41/29 48/48/36 32/32/20
f 41/41/29 42/42/30 49/49/37
f 41/41/29 50/50/38 48/48/36
f 41/41/29 49/49/37 50/50/38
f 32/32/20 48/48/36 44/44/32
f 46/46/34 51/51/39 36/36/24
f 46/46/34 52/52/40 51/51/39
f 46/46/34 53/53/41 52/52/40
f 51/51/39 47/47/35 36/36/24
f 51/51/39 49/49/37 42/42/30
f 51/51/39 52/52/40 49/49/37
f 51/51/39 42/42/30 47/47/35
f 50/50/38 54/54/42 48/48/36
f 50/50/38 49/49/37 55/55/43
f 50/50/38 56/56/44 54/54/42
f 50/50/38 55/55/43 56/56/44
f 49/49/37 52/52/40 55/55/43
f 53/53/41 57/57/45 52/52/40
f 53/53/41 58/58/46 57/57/45
f 52/52/40 57/57/45 55/55/43
f 54/54/42 56/56/44 59/59/47
f 58/58/46 60/60/48 57/57/45
f 55/55/43 61/61/49 56/56/44
f 55/55/43 57/57/45 61/61/49
f 57/57/45 60/60/48 61/61/49
f 59/59/47 56/56/44 62/62/50
f 56/56/44 61/61/49 62/62/50
f 60/60/48 63/63/51 61/61/49
f 61/61/49 63/63/51 62/62/50
f 64/64/52 66/65/53 65/66/54
f 64/64/52 67/67/55 66/65/53
f 66/65/53 67/67/55 70/68/56
f 66/65/53 71/69/57 65/66/54
f 66/65/53 70/68/56 72/70/58
f 66/65/53 72/70/58 71/69/57
f 67/67/55 73/71/59 70/68/56
f 68/72/60 65/66/54 75/73/61
f 68/72/60 76/74/62 74/75/63
f 68/72/60 75/73/61 76/74/62
f 75/73/61 65/66/54 71/69/57
f 72/70/58 70/68/56 77/76/64
f 73/71/59 78/77/65 70/68/56
f 70/68/56 78/77/65 77/76/64
f 76/74/62 79/78/66 74/75/63
f 74/75/63 79/78/66 69/79/67
f 80/80/68 81/81/69 82/82/70
f 80/80/68 82/82/70 83/83/71
f 80/80/68 83/83/71 84/84/72
f 81/81/69 85/85/73 82/82/70
f 81/81/69 86/86/74 85/85/73
f 83/83/71 87/87/75 84/84/72
f 86/86/74 88/88/76 85/85/73
f 86/86/74 89/89/77 88/88/76
f 87/87/75 90/90/78 84/84/72
f 87/87/75 91/91/79 90/90/78
f 91/91/79 88/88/76 89/89/77
f 91/91/79 89/89/77 90/90/78
