# Blender v2.83.20 OBJ File: ''
# www.blender.org
mtllib Choza.mtl
o Choza_geom-03D75826.013
v 3.679700 1.807600 0.238800
v 2.840200 1.580700 0.238800
v 3.679700 1.759600 1.516100
v 2.840200 1.532600 1.516100
v 2.840200 1.580799 2.797800
v 2.840200 1.532600 1.516100
v 1.979500 1.408300 2.797800
v 1.979500 1.360100 1.516100
v 2.840200 1.580700 0.238800
v 1.979500 1.408100 0.238800
v 2.840200 1.532600 1.516100
v 1.979500 1.360100 1.516100
v 2.840200 1.532600 1.516100
v 2.840200 1.580799 2.797800
v 3.679700 1.759600 1.516100
v 3.679700 1.807799 2.797800
v 2.847500 1.565400 0.238800
v 2.847500 1.517400 1.516100
v 1.979500 1.405800 0.238800
v 1.979500 1.356900 1.516100
v 3.679700 1.798300 2.797800
v 2.847500 1.565599 2.797800
v 3.679700 1.747700 1.516100
v 2.847500 1.517400 1.516100
v 3.679700 1.792900 0.238800
v 3.679700 1.747700 1.516100
v 2.847500 1.565400 0.238800
v 2.847500 1.517400 1.516100
v 2.847500 1.565599 2.797800
v 1.979500 1.405399 2.797800
v 2.847500 1.517400 1.516100
v 1.979500 1.356900 1.516100
v 2.293300 0.706300 2.642900
v 2.237300 0.706300 2.642900
v 2.293300 1.412700 2.642900
v 2.237300 1.412700 2.642900
v 2.237300 0.706300 2.642900
v 2.209300 0.706300 2.691500
v 2.237300 1.412700 2.642900
v 2.209300 1.412700 2.691500
v 2.237300 0.706300 2.740000
v 2.237300 1.412700 2.740000
v 2.237300 0.706300 2.740000
v 2.293300 0.706300 2.740000
v 2.237300 1.412700 2.740000
v 2.293300 1.412700 2.740000
v 2.321300 0.706300 2.691500
v 2.321300 1.412700 2.691500
v 2.321300 -0.000000 2.691500
v 2.293300 -0.000000 2.642900
v 2.321300 0.706300 2.691500
v 2.293300 0.706300 2.642900
v 2.237300 -0.000000 2.642900
v 2.237300 0.706300 2.642900
v 2.321300 0.706300 2.691500
v 2.321300 1.412700 2.691500
v 2.237300 -0.000000 2.642900
v 2.209300 -0.000000 2.691500
v 2.237300 0.706300 2.642900
v 2.209300 0.706300 2.691500
v 2.237300 -0.000000 2.740000
v 2.237300 0.706300 2.740000
v 2.237300 -0.000000 2.740000
v 2.293300 -0.000000 2.740000
v 2.237300 0.706300 2.740000
v 2.293300 0.706300 2.740000
v 2.321300 -0.000000 2.691500
v 2.321300 0.706300 2.691500
v 2.293300 0.706300 0.260600
v 2.237300 0.706300 0.260600
v 2.293300 1.412700 0.260600
v 2.237300 1.412700 0.260600
v 2.237300 0.706300 0.260600
v 2.209300 0.706300 0.309100
v 2.237300 1.412700 0.260600
v 2.209300 1.412700 0.309100
v 2.237300 0.706300 0.357600
v 2.237300 1.412700 0.357600
v 2.237300 0.706300 0.357600
v 2.293300 0.706300 0.357600
v 2.237300 1.412700 0.357600
v 2.293300 1.412700 0.357600
v 2.321300 0.706300 0.309100
v 2.321300 1.412700 0.309100
v 2.321300 -0.000000 0.309100
v 2.293300 -0.000000 0.260600
v 2.321300 0.706300 0.309100
v 2.293300 0.706300 0.260600
v 2.237300 -0.000000 0.260600
v 2.237300 0.706300 0.260600
v 2.321300 0.706300 0.309100
v 2.321300 1.412700 0.309100
v 2.237300 -0.000000 0.260600
v 2.209300 -0.000000 0.309100
v 2.237300 0.706300 0.260600
v 2.209300 0.706300 0.309100
v 2.237300 -0.000000 0.357600
v 2.237300 0.706300 0.357600
v 2.237300 -0.000000 0.357600
v 2.293300 -0.000000 0.357600
v 2.237300 0.706300 0.357600
v 2.293300 0.706300 0.357600
v 2.321300 -0.000000 0.309100
v 2.321300 0.706300 0.309100
v 2.868300 1.577799 2.767800
v 1.991500 1.405200 2.767800
v 2.873500 1.536399 2.804500
v 1.996700 1.363799 2.804500
v 2.873500 1.536399 2.731100
v 1.996700 1.363799 2.731100
v 2.873500 1.536399 2.731100
v 2.878800 1.494299 2.767800
v 1.996700 1.363799 2.731100
v 2.002000 1.321700 2.767800
v 3.679700 1.763399 2.804500
v 2.873500 1.536399 2.804500
v 3.679700 1.721299 2.767800
v 2.878800 1.494299 2.767800
v 3.679700 1.804799 2.767800
v 2.868300 1.577799 2.767800
v 3.679700 1.763399 2.804500
v 2.873500 1.536399 2.804500
v 2.873500 1.536399 2.804500
v 1.996700 1.363799 2.804500
v 2.878800 1.494299 2.767800
v 2.002000 1.321700 2.767800
v 3.679700 1.763399 2.731100
v 2.873500 1.536399 2.731100
v 3.679700 1.763399 2.731100
v 3.679700 1.721299 2.767800
v 2.873500 1.536399 2.731100
v 2.878800 1.494299 2.767800
v 2.868300 1.577800 0.254200
v 1.991500 1.405200 0.254200
v 2.873500 1.536300 0.290900
v 1.996700 1.363800 0.290900
v 2.873500 1.536300 0.217500
v 1.996700 1.363800 0.217500
v 2.873500 1.536300 0.217500
v 2.878800 1.494200 0.254200
v 1.996700 1.363800 0.217500
v 2.002000 1.321700 0.254200
v 3.679700 1.763300 0.290900
v 2.873500 1.536300 0.290900
v 3.679700 1.721200 0.254200
v 2.878800 1.494200 0.254200
v 3.679700 1.804800 0.254200
v 2.868300 1.577800 0.254200
v 3.679700 1.763300 0.290900
v 2.873500 1.536300 0.290900
v 2.873500 1.536300 0.290900
v 1.996700 1.363800 0.290900
v 2.878800 1.494200 0.254200
v 2.002000 1.321700 0.254200
v 3.679700 1.804800 0.254200
v 3.679700 1.763300 0.217500
v 2.873500 1.536300 0.217500
v 3.679700 1.763300 0.217500
v 3.679700 1.721200 0.254200
v 2.873500 1.536300 0.217500
v 2.878800 1.494200 0.254200
v 2.925800 1.516100 1.511000
v 2.925800 1.534199 2.801400
v 2.963200 1.553400 1.511000
v 2.963200 1.571599 2.801400
v 2.963200 1.478800 1.511000
v 2.963200 1.496899 2.801400
v 3.000500 1.516100 1.511000
v 3.000500 1.534199 2.801400
v 2.963200 1.571600 0.220500
v 3.000500 1.534200 0.220500
v 2.963200 1.496900 0.220500
v 2.925800 1.534200 0.220500
v 3.000500 1.534200 0.220500
v 2.963200 1.571600 0.220500
v 2.925800 1.534199 2.801400
v 2.963200 1.496899 2.801400
v 3.000500 1.534199 2.801400
v 2.963200 1.571599 2.801400
v 2.925800 1.534200 0.220500
v 2.963200 1.496900 0.220500
v 2.137800 1.357100 1.511000
v 2.137800 1.401299 2.801400
v 2.175200 1.394400 1.511000
v 2.175200 1.438599 2.801400
v 2.175200 1.319700 1.511000
v 2.175200 1.364000 2.801400
v 2.212500 1.357100 1.511000
v 2.212500 1.401299 2.801400
v 2.175200 1.438600 0.220500
v 2.212500 1.401300 0.220500
v 2.175200 1.364000 0.220500
v 2.137800 1.401300 0.220500
v 2.212500 1.401300 0.220500
v 2.175200 1.438600 0.220500
v 2.137800 1.401299 2.801400
v 2.175200 1.364000 2.801400
v 2.212500 1.401299 2.801400
v 2.175200 1.438599 2.801400
v 2.137800 1.401300 0.220500
v 2.175200 1.364000 0.220500
v 2.840200 1.464500 0.080900
v 2.840200 1.580700 0.238800
v 3.679700 1.691400 0.080900
v 3.679700 1.807600 0.238800
v 1.979500 1.408300 2.797800
v 1.873400 1.241199 2.797800
v 1.979500 1.292099 2.902100
v 2.840200 1.580799 2.797800
v 2.847500 1.461599 2.904600
v 1.979500 1.291900 0.080900
v 1.873400 1.241000 0.238800
v 1.979500 1.408100 0.238800
v 1.873400 1.193000 1.516100
v 1.873400 1.241199 2.797800
v 1.979500 1.360100 1.516100
v 1.979500 1.408300 2.797800
v 1.979500 1.408100 0.238800
v 1.873400 1.241000 0.238800
v 1.979500 1.360100 1.516100
v 1.873400 1.193000 1.516100
v 2.840200 1.580700 0.238800
v 2.840200 1.464500 0.080900
v 3.679700 1.807799 2.797800
v 2.840200 1.580799 2.797800
v 3.679700 1.691599 2.902100
v 2.847500 1.461599 2.904600
v 2.847500 1.565400 0.238800
v 1.979500 1.405800 0.238800
v 2.840200 1.464500 0.083900
v 1.979500 1.291900 0.085600
v 1.979500 1.405399 2.797800
v 1.994200 1.295500 2.902100
v 1.876800 1.241199 2.794100
v 3.679700 1.798300 2.797800
v 3.679700 1.691599 2.897600
v 2.847500 1.565599 2.797800
v 2.847500 1.461599 2.902100
v 1.879400 1.241000 0.239000
v 1.979500 1.405399 2.797800
v 1.876800 1.241199 2.794100
v 1.979500 1.356900 1.516100
v 1.877900 1.193000 1.516100
v 1.979500 1.405800 0.238800
v 1.979500 1.356900 1.516100
v 1.879400 1.241000 0.239000
v 1.877900 1.193000 1.516100
v 3.679700 1.792900 0.238800
v 2.847500 1.565400 0.238800
v 3.679700 1.691400 0.086500
v 2.840200 1.464500 0.083900
v 2.847500 1.565599 2.797800
v 2.847500 1.461599 2.902100
vt 0.180000 0.250000
vt 0.990000 0.990000
vt 0.180000 0.990000
vt 0.990000 0.250000
vt 0.180000 0.990000
vt 0.990000 0.220000
vt 0.990000 0.990000
vt 0.180000 0.220000
vt 0.180000 0.220000
vt 0.990000 0.990000
vt 0.180000 0.990000
vt 0.990000 0.220000
vt 0.990000 0.250000
vt 0.180000 0.990000
vt 0.180000 0.250000
vt 0.990000 0.990000
vt 0.990000 0.990000
vt 0.180000 0.220000
vt 0.180000 0.990000
vt 0.990000 0.220000
vt 0.990000 0.250000
vt 0.180000 0.990000
vt 0.990000 0.990000
vt 0.180000 0.250000
vt 0.990000 0.990000
vt 0.180000 0.250000
vt 0.180000 0.990000
vt 0.990000 0.250000
vt 0.990000 0.220000
vt 0.180000 0.990000
vt 0.990000 0.990000
vt 0.180000 0.220000
vt 0.060000 -2.000000
vt 0.000000 -2.000000
vt 0.000000 0.120000
vt 0.000000 0.120000
vt 0.060000 0.120000
vt 0.060000 0.120000
vt 0.060000 0.120000
vt 0.060000 0.120000
vt 0.060000 -2.000000
vt 0.120000 -2.000000
vt 0.120000 0.120000
vt 0.120000 0.120000
vt 0.060000 -2.000000
vt 0.000000 -2.000000
vt 0.000000 0.120000
vt 0.060000 0.120000
vt 0.120000 0.120000
vt 0.120000 0.120000
vt 0.060000 0.120000
vt 0.120000 -2.000000
vt 0.060000 0.120000
vt 0.000000 0.120000
vt 0.060000 0.120000
vt 0.060000 -2.000000
vt 0.060000 0.090000
vt 0.120000 -1.140000
vt 0.060000 -1.140000
vt 0.120000 0.090000
vt 0.000000 -1.140000
vt 0.000000 0.090000
vt 0.060000 0.000000
vt 0.120000 0.000000
vt 0.120000 -1.130000
vt 0.060000 -1.130000
vt 0.000000 -1.130000
vt 0.000000 0.000000
vt 0.060000 0.090000
vt 0.120000 -1.140000
vt 0.060000 -1.140000
vt 0.120000 0.090000
vt 0.000000 -1.140000
vt 0.000000 0.090000
vt 0.060000 0.000000
vt 0.120000 -1.130000
vt 0.060000 -1.130000
vt 0.120000 0.000000
vt 0.060000 -1.130000
vt 0.000000 -1.130000
vt 0.000000 0.000000
vt 0.060000 -0.140000
vt 0.120000 -0.140000
vt 0.060000 0.990000
vt 0.000000 0.990000
vt 0.000000 -0.140000
vt 0.120000 0.990000
vt 0.060000 -0.140000
vt 0.000000 0.990000
vt 0.000000 -0.140000
vt 0.060000 0.990000
vt 0.120000 -0.140000
vt 0.120000 0.990000
vt 0.060000 -0.140000
vt 0.000000 0.990000
vt 0.000000 -0.140000
vt 0.060000 0.990000
vt 0.120000 -0.140000
vt 0.120000 0.990000
vt 0.060000 -0.990000
vt 0.000000 0.000000
vt 0.000000 -0.990000
vt 0.060000 0.000000
vt 0.120000 -0.990000
vt 0.120000 0.000000
vt 0.060000 -0.990000
vt 0.000000 0.000000
vt 0.000000 -0.990000
vt 0.060000 0.000000
vt 0.120000 -0.990000
vt 0.120000 0.000000
vt 0.060000 -0.990000
vt 0.000000 0.000000
vt 0.000000 -0.990000
vt 0.060000 0.000000
vt 0.120000 -0.990000
vt 0.120000 0.000000
vt 0.060000 -0.140000
vt 0.120000 -0.140000
vt 0.060000 0.990000
vt 0.000000 0.990000
vt 0.000000 -0.140000
vt 0.120000 0.990000
vt 0.060000 -0.140000
vt 0.000000 0.990000
vt 0.000000 -0.140000
vt 0.060000 0.990000
vt 0.120000 -0.140000
vt 0.120000 0.990000
vt 0.060000 -0.140000
vt 0.000000 0.990000
vt 0.000000 -0.140000
vt 0.060000 0.990000
vt 0.120000 -0.140000
vt 0.120000 0.990000
vt 0.060000 -0.990000
vt 0.000000 0.000000
vt 0.000000 -0.990000
vt 0.060000 0.000000
vt 0.120000 -0.990000
vt 0.120000 0.000000
vt 0.060000 -0.990000
vt 0.000000 0.000000
vt 0.000000 -0.990000
vt 0.060000 0.000000
vt 0.120000 -0.990000
vt 0.120000 0.000000
vt 0.060000 -0.990000
vt 0.000000 0.000000
vt 0.000000 -0.990000
vt 0.060000 0.000000
vt 0.120000 -0.990000
vt 0.120000 0.000000
vt 0.000000 -1.140000
vt 0.060000 0.090000
vt 0.060000 -1.140000
vt 0.000000 0.090000
vt 0.060000 0.000000
vt 0.120000 -1.130000
vt 0.060000 -1.130000
vt 0.120000 0.000000
vt 0.060000 0.090000
vt 0.120000 -1.140000
vt 0.060000 -1.140000
vt 0.120000 0.090000
vt 0.000000 -1.130000
vt 0.060000 0.000000
vt 0.060000 -1.130000
vt 0.000000 0.000000
vt 0.000000 -1.140000
vt 0.060000 0.090000
vt 0.060000 -1.140000
vt 0.000000 0.090000
vt 0.060000 0.000000
vt 0.120000 -1.130000
vt 0.060000 -1.130000
vt 0.120000 0.000000
vt 0.060000 0.090000
vt 0.120000 -1.140000
vt 0.060000 -1.140000
vt 0.120000 0.090000
vt 0.000000 -1.130000
vt 0.060000 0.000000
vt 0.060000 -1.130000
vt 0.000000 0.000000
vt 0.570000 0.180000
vt 0.500000 0.320000
vt 0.500000 0.180000
vt 0.570000 0.320000
vt 0.500000 0.320000
vt 0.500000 0.180000
vt 0.570000 0.180000
vt 0.570000 0.320000
vt 0.570000 0.180000
vt 0.500000 0.320000
vt 0.500000 0.180000
vt 0.570000 0.320000
vt 0.500000 0.320000
vt 0.500000 0.180000
vt 0.570000 0.180000
vt 0.570000 0.320000
vt 0.120000 0.980000
vt 0.170000 0.770000
vt 0.990000 0.980000
vt 0.990000 0.770000
vt 0.170000 0.770000
vt 0.010000 0.770000
vt 0.120000 0.980000
vt 0.990000 0.770000
vt 0.990000 0.980000
vt 0.120000 0.980000
vt 0.010000 0.770000
vt 0.170000 0.770000
vt 0.180000 0.520000
vt 0.990000 0.520000
vt 0.180000 0.730000
vt 0.990000 0.730000
vt 0.180000 0.730000
vt 0.180000 0.520000
vt 0.990000 0.730000
vt 0.990000 0.520000
vt 0.990000 0.770000
vt 0.990000 0.980000
vt 0.990000 0.770000
vt 0.170000 0.770000
vt 0.990000 0.980000
vt 0.120000 0.980000
vt 0.990000 0.770000
vt 0.170000 0.770000
vt 0.990000 0.980000
vt 0.120000 0.980000
vt 0.170000 0.770000
vt 0.120000 0.980000
vt 0.010000 0.770000
vt 0.990000 0.770000
vt 0.990000 0.980000
vt 0.170000 0.770000
vt 0.120000 0.980000
vt 0.010000 0.770000
vt 0.990000 0.730000
vt 0.990000 0.520000
vt 0.180000 0.730000
vt 0.180000 0.520000
vt 0.180000 0.730000
vt 0.990000 0.730000
vt 0.180000 0.520000
vt 0.990000 0.520000
vt 0.990000 0.770000
vt 0.170000 0.770000
vt 0.990000 0.980000
vt 0.120000 0.980000
vt 0.990000 0.770000
vt 0.990000 0.980000
vn -0.2607 0.9647 0.0363
vn -0.2609 0.9647 0.0363
vn -0.1964 0.9798 -0.0368
vn -0.1965 0.9798 0.0369
vn -0.1964 0.9798 0.0368
vn -0.2609 0.9647 -0.0363
vn 0.1807 -0.9828 -0.0369
vn 0.1817 -0.9826 -0.0376
vn 0.2691 -0.9624 0.0380
vn 0.2665 -0.9631 0.0362
vn 0.2635 -0.9640 -0.0341
vn 0.2665 -0.9631 -0.0362
vn 0.1814 -0.9827 0.0370
vn 0.1817 -0.9827 0.0372
vn -0.7061 0.7080 -0.0099
vn -0.7061 0.7080 0.0099
vn -0.7071 0.7071 -0.0100
vn -0.7071 0.7071 0.0100
vn -0.7061 -0.7080 0.0099
vn -0.7061 -0.7080 -0.0099
vn 0.7071 -0.7071 0.0099
vn 0.7071 -0.7071 -0.0099
vn -0.7060 0.7078 -0.0242
vn 0.7069 0.7069 -0.0242
vn 0.7069 0.7069 0.0242
vn -0.7060 -0.7078 0.0242
vn -0.7060 -0.7078 -0.0242
vn -0.7069 -0.7069 0.0243
vn -0.7069 -0.7069 -0.0243
vn 0.7069 -0.7069 0.0242
vn 0.7069 -0.7069 -0.0242
vn 0.7078 -0.7060 0.0242
vn 0.7078 -0.7060 -0.0242
vn -0.1277 0.6489 0.7501
vn -0.1277 0.6489 -0.7501
vn -0.1801 0.6397 0.7472
vn -0.1825 0.6522 -0.7357
vn -0.1801 0.6397 -0.7472
vn -0.1276 0.6480 0.7509
vn -0.1276 0.6480 -0.7509
vn -0.1822 0.6514 0.7366
vn -0.1799 0.6389 0.7480
vn -0.1822 0.6514 -0.7366
vn -0.1799 0.6389 -0.7480
vn 0.0000 0.0000 -1.0000
vn 0.8665 0.0000 -0.4992
vn -0.8665 0.0000 -0.4992
vn -0.8660 0.0000 0.5000
vn 0.0000 -0.0000 1.0000
vn 0.8660 -0.0000 0.5000
vn 0.8660 0.0000 -0.5000
vn -0.8660 -0.0000 -0.5000
vn 0.1265 -0.6427 -0.7556
vn 0.1819 -0.6461 0.7412
vn 0.1796 -0.6335 0.7526
vn 0.1265 -0.6427 0.7556
vn 0.1819 -0.6461 -0.7412
vn 0.1795 -0.6335 -0.7526
vn 0.1796 -0.6335 -0.7526
vn -0.2127 0.7870 -0.5791
vn -0.7248 0.4602 0.5127
vn -0.1317 0.6570 0.7423
vn -0.1314 0.6622 0.7377
vn -0.7853 0.4986 -0.3669
vn -0.8440 0.5359 -0.0202
vn -0.8440 0.5359 0.0201
vn -0.1594 0.7951 -0.5851
vn -0.1777 0.6573 0.7323
vn -0.1776 0.6506 0.7383
vn 0.1529 -0.8313 0.5343
vn 0.1600 -0.7922 0.5890
vn 0.7106 -0.4320 -0.5553
vn 0.1876 -0.6710 -0.7174
vn 0.1885 -0.6954 -0.6934
vn 0.7976 -0.4840 0.3599
vn 0.8475 -0.5305 0.0201
vn 0.8498 -0.5268 0.0206
vn 0.8545 -0.5191 -0.0199
vn 0.8498 -0.5268 -0.0188
vn 0.2218 -0.8114 0.5408
vn 0.2205 -0.8220 0.5250
vn 0.1296 -0.7022 -0.7001
vn 0.1310 -0.6732 -0.7278
g Choza_geom-03D75826.013_material-036FDDC8
usemtl material-036FDDC8
s off
f 2/1/1 3/2/1 1/3/1
f 2/1/2 4/4/2 3/2/2
f 6/5/3 7/6/3 5/7/3
f 6/5/3 8/8/3 7/6/3
f 10/9/4 11/10/4 9/11/4
f 10/9/5 12/12/5 11/10/5
f 14/13/6 15/14/6 13/15/6
f 14/13/6 16/16/6 15/14/6
f 18/17/7 19/18/7 17/19/7
f 18/17/8 20/20/8 19/18/8
f 22/21/9 23/22/9 21/23/9
f 22/21/10 24/24/10 23/22/10
f 26/25/11 27/26/11 25/27/11
f 26/25/12 28/28/12 27/26/12
f 30/29/13 31/30/13 29/31/13
f 30/29/14 32/32/14 31/30/14
g Choza_geom-03D75826.013_material-00258989
usemtl material-00258989
f 164/33/15 162/34/15 163/35/15
f 164/33/16 180/36/16 162/34/16
f 164/33/17 163/35/17 165/37/17
f 164/33/18 170/38/18 180/36/18
f 162/34/19 167/39/19 163/35/19
f 162/34/20 180/36/20 181/40/20
f 162/34/19 166/41/19 167/39/19
f 162/34/20 181/40/20 166/41/20
f 168/42/21 169/43/21 167/39/21
f 168/42/22 181/40/22 171/44/22
f 168/42/21 167/39/21 166/41/21
f 168/42/22 166/41/22 181/40/22
f 184/45/23 182/46/23 183/47/23
f 184/45/24 185/48/24 189/49/24
f 184/45/25 191/50/25 190/51/25
f 184/45/24 189/49/24 188/52/24
f 184/45/25 188/52/25 191/50/25
f 182/46/26 187/53/26 183/47/26
f 182/46/27 200/54/27 201/55/27
f 182/46/28 186/56/28 187/53/28
f 182/46/29 201/55/29 186/56/29
f 188/52/30 189/49/30 187/53/30
f 188/52/31 201/55/31 191/50/31
f 188/52/32 187/53/32 186/56/32
f 188/52/33 186/56/33 201/55/33
f 106/57/34 107/58/34 105/59/34
f 106/57/34 108/60/34 107/58/34
f 106/57/35 105/59/35 109/61/35
f 106/57/35 109/61/35 110/62/35
f 120/63/36 122/64/36 121/65/36
f 120/63/37 119/66/37 127/67/37
f 120/63/38 127/67/38 128/68/38
f 134/69/39 135/70/39 133/71/39
f 134/69/34 136/72/34 135/70/34
f 134/69/40 133/71/40 137/73/40
f 134/69/35 137/73/35 138/74/35
f 148/75/41 149/76/41 147/77/41
f 148/75/42 150/78/42 149/76/42
f 148/75/43 155/79/43 156/80/43
f 148/75/44 156/80/44 157/81/44
f 33/82/45 34/83/45 35/84/45
f 33/82/46 35/84/46 56/85/46
f 33/82/46 56/85/46 55/86/46
f 34/83/45 36/87/45 35/84/45
f 38/88/47 39/89/47 37/90/47
f 38/88/47 40/91/47 39/89/47
f 38/88/48 41/92/48 40/91/48
f 41/92/48 42/93/48 40/91/48
f 44/94/49 45/95/49 43/96/49
f 44/94/49 46/97/49 45/95/49
f 44/94/50 47/98/50 46/97/50
f 47/98/50 48/99/50 46/97/50
f 50/100/46 51/101/46 49/102/46
f 50/100/46 52/103/46 51/101/46
f 50/100/45 53/104/45 52/103/45
f 53/104/45 54/105/45 52/103/45
f 58/106/47 59/107/47 57/108/47
f 58/106/47 60/109/47 59/107/47
f 58/106/48 61/110/48 60/109/48
f 61/110/48 62/111/48 60/109/48
f 64/112/49 65/113/49 63/114/49
f 64/112/49 66/115/49 65/113/49
f 64/112/50 67/116/50 66/115/50
f 67/116/50 68/117/50 66/115/50
f 69/118/45 70/119/45 71/120/45
f 69/118/51 71/120/51 92/121/51
f 69/118/51 92/121/51 91/122/51
f 70/119/45 72/123/45 71/120/45
f 74/124/52 75/125/52 73/126/52
f 74/124/52 76/127/52 75/125/52
f 74/124/48 77/128/48 76/127/48
f 77/128/48 78/129/48 76/127/48
f 80/130/49 81/131/49 79/132/49
f 80/130/49 82/133/49 81/131/49
f 80/130/50 83/134/50 82/133/50
f 83/134/50 84/135/50 82/133/50
f 86/136/51 87/137/51 85/138/51
f 86/136/51 88/139/51 87/137/51
f 86/136/45 89/140/45 88/139/45
f 89/140/45 90/141/45 88/139/45
f 94/142/52 95/143/52 93/144/52
f 94/142/52 96/145/52 95/143/52
f 94/142/48 97/146/48 96/145/48
f 97/146/48 98/147/48 96/145/48
f 100/148/49 101/149/49 99/150/49
f 100/148/49 102/151/49 101/149/49
f 100/148/50 103/152/50 102/151/50
f 103/152/50 104/153/50 102/151/50
f 112/154/53 113/155/53 111/156/53
f 112/154/53 114/157/53 113/155/53
f 116/158/54 117/159/54 115/160/54
f 116/158/55 118/161/55 117/159/55
f 124/162/56 125/163/56 123/164/56
f 124/162/56 126/165/56 125/163/56
f 130/166/57 131/167/57 129/168/57
f 130/166/58 132/169/58 131/167/58
f 140/170/53 141/171/53 139/172/53
f 140/170/53 142/173/53 141/171/53
f 144/174/54 145/175/54 143/176/54
f 144/174/55 146/177/55 145/175/55
f 152/178/56 153/179/56 151/180/56
f 152/178/56 154/181/56 153/179/56
f 159/182/57 160/183/57 158/184/57
f 159/182/59 161/185/59 160/183/59
f 173/186/45 174/187/45 172/188/45
f 173/186/45 175/189/45 174/187/45
f 176/190/49 177/191/49 178/192/49
f 176/190/49 178/192/49 179/193/49
f 193/194/45 194/195/45 192/196/45
f 193/194/45 195/197/45 194/195/45
f 196/198/49 197/199/49 198/200/49
f 196/198/49 198/200/49 199/201/49
g Choza_geom-03D75826.013_material-019B4295
usemtl material-019B4295
f 202/202/60 203/203/60 204/204/60
f 204/204/60 203/203/60 205/205/60
f 206/206/61 207/207/61 208/208/61
f 209/209/62 206/206/62 210/210/62
f 210/210/63 206/206/63 208/208/63
f 211/211/64 212/212/64 213/213/64
f 214/214/65 215/215/65 216/216/65
f 216/216/65 215/215/65 217/217/65
f 218/218/66 219/219/66 220/220/66
f 220/220/66 219/219/66 221/221/66
f 222/222/67 223/223/67 213/213/67
f 213/213/67 223/223/67 211/211/67
f 224/224/68 225/225/68 226/226/68
f 226/226/69 225/225/69 227/227/69
f 228/228/70 229/229/70 230/230/70
f 230/230/71 229/229/71 231/231/71
f 232/232/72 233/233/72 234/234/72
f 235/235/73 236/236/73 237/237/73
f 237/237/74 236/236/74 238/238/74
f 231/231/75 229/229/75 239/239/75
f 240/240/76 241/241/76 242/242/76
f 242/242/77 241/241/77 243/243/77
f 244/244/78 245/245/78 246/246/78
f 246/246/79 245/245/79 247/247/79
f 248/248/80 249/249/80 250/250/80
f 250/250/81 249/249/81 251/251/81
f 252/252/82 253/253/82 232/232/82
f 232/232/83 253/253/83 233/233/83
