# Blender v2.83.20 OBJ File: 'untitled.blend'
# www.blender.org
mtllib MesaCaja.mtl
o clocktown_main.002_geom-03D75826.002
v -0.181231 0.097535 -0.225488
v -0.181231 0.097535 -0.021488
v -0.181231 0.306535 -0.225488
v -0.181231 0.306535 -0.021488
v -0.181231 0.306535 0.182412
v -0.181231 0.097535 0.182412
v -0.193531 0.356735 -0.722388
v -0.193531 0.415435 -0.722388
v 0.206469 0.356735 -0.722388
v 0.206469 0.415435 -0.722388
v 0.206469 0.356735 0.677612
v 0.206469 0.415435 0.677612
v -0.193531 0.356735 0.677612
v -0.193531 0.415435 0.677612
v -0.163831 0.015435 0.649512
v 0.176869 0.015435 0.649512
v -0.163831 0.356735 0.649512
v 0.176869 0.356735 0.649512
v 0.176869 0.356735 0.609312
v 0.176869 0.356735 0.649512
v 0.176869 0.015435 0.609312
v 0.176869 0.015435 0.649512
v -0.163831 0.015435 0.649512
v -0.163831 0.356735 0.649512
v -0.163831 0.015435 -0.022388
v -0.163831 0.356735 -0.022388
v -0.163831 0.015435 -0.022388
v -0.163831 0.356735 -0.022388
v -0.163831 0.015435 -0.694388
v -0.163831 0.356735 -0.694388
v -0.115631 0.015435 0.609312
v -0.115631 0.015435 -0.022388
v -0.115631 0.356735 0.609312
v -0.115631 0.356735 -0.022388
v -0.115631 0.015435 -0.022388
v -0.115631 0.015435 -0.654188
v -0.115631 0.356735 -0.022388
v -0.115631 0.356735 -0.654188
v -0.163831 0.015435 -0.694388
v -0.163831 0.356735 -0.694388
v 0.176869 0.015435 -0.694388
v 0.176869 0.356735 -0.694388
v 0.176869 0.356735 -0.654188
v 0.176869 0.015435 -0.654188
v 0.176869 0.356735 -0.694388
v 0.176869 0.015435 -0.694388
v -0.115631 0.356735 -0.654188
v -0.115631 0.015435 -0.654188
v 0.176869 0.356735 -0.654188
v 0.176869 0.015435 -0.654188
v 0.176869 0.356735 0.609312
v 0.176869 0.015435 0.609312
v -0.115631 0.356735 0.609312
v -0.115631 0.015435 0.609312
v 0.206469 0.356735 -0.722388
v 0.206469 0.415435 -0.722388
v 0.206469 0.356735 -0.022388
v 0.206469 0.415435 -0.022388
v -0.193531 0.356735 0.677612
v -0.193531 0.415435 0.677612
v -0.193531 0.356735 -0.022388
v -0.193531 0.415435 -0.022388
v 0.206469 0.415435 -0.022388
v -0.193531 0.415435 -0.022388
v 0.206469 0.415435 0.677612
v -0.193531 0.415435 0.677612
v 0.206469 0.356735 0.677612
v 0.206469 0.415435 0.677612
v -0.193531 0.415435 -0.722388
v 0.206469 0.415435 -0.722388
v -0.193531 0.356735 -0.722388
v -0.193531 0.415435 -0.722388
vt 0.710000 0.690000
vt 0.450000 0.820000
vt 0.450000 0.690000
vt 0.710000 0.820000
vt 0.980000 0.820000
vt 0.980000 0.690000
vt 0.740000 0.070000
vt 0.250000 0.020000
vt 0.740000 0.020000
vt 0.250000 0.070000
vt 0.250000 0.070000
vt 0.740000 0.020000
vt 0.250000 0.020000
vt 0.740000 0.070000
vt 0.500000 0.010000
vt 0.680000 0.430000
vt 0.680000 0.010000
vt 0.500000 0.430000
vt 0.690000 0.430000
vt 0.720000 0.010000
vt 0.720000 0.430000
vt 0.690000 0.010000
vt 0.990000 0.430000
vt 0.690000 0.010000
vt 0.990000 0.010000
vt 0.690000 0.430000
vt 1.000000 0.430000
vt 0.690000 0.010000
vt 1.000000 0.010000
vt 0.690000 0.430000
vt 1.000000 0.010000
vt 0.690000 0.430000
vt 0.690000 0.010000
vt 1.000000 0.430000
vt 1.000000 0.010000
vt 0.690000 0.430000
vt 0.690000 0.010000
vt 1.000000 0.430000
vt 0.690000 0.430000
vt 0.500000 0.010000
vt 0.690000 0.010000
vt 0.500000 0.430000
vt 0.600000 0.010000
vt 0.620000 0.430000
vt 0.600000 0.430000
vt 0.620000 0.010000
vt 0.660000 0.010000
vt 0.500000 0.430000
vt 0.660000 0.430000
vt 0.500000 0.010000
vt 0.500000 0.010000
vt 0.660000 0.430000
vt 0.500000 0.430000
vt 0.660000 0.010000
vt 0.740000 0.630000
vt 0.260000 1.000000
vt 0.260000 0.630000
vt 0.740000 1.000000
vt 0.260000 0.250000
vt 0.740000 0.250000
vt 0.760000 0.630000
vt 0.760000 0.250000
vt 0.870000 0.250000
vt 0.870000 0.630000
vt 0.760000 1.000000
vt 0.870000 1.000000
vt 0.760000 0.630000
vt 0.760000 0.250000
vt 0.870000 0.250000
vt 0.870000 0.630000
vt 0.760000 1.000000
vt 0.870000 1.000000
vn -1.0000 -0.0000 0.0000
vn 0.0000 0.0000 -1.0000
vn 0.0000 0.0000 1.0000
vn 1.0000 0.0000 0.0000
vn 0.0000 1.0000 0.0000
g clocktown_main.002_geom-03D75826.002_material-03DC13CA
usemtl material-03DC13CA
s off
f 2/1/1 3/2/1 1/3/1
f 2/1/1 4/4/1 3/2/1
f 2/1/1 5/5/1 4/4/1
f 2/1/1 6/6/1 5/5/1
g clocktown_main.002_geom-03D75826.002_material-0151D5D9
usemtl material-0151D5D9
f 8/7/2 9/8/2 7/9/2
f 8/7/2 10/10/2 9/8/2
f 12/11/3 13/12/3 11/13/3
f 12/11/3 14/14/3 13/12/3
g clocktown_main.002_geom-03D75826.002_material-00258989
usemtl material-00258989
f 16/15/3 17/16/3 15/17/3
f 16/15/3 18/18/3 17/16/3
f 20/19/4 21/20/4 19/21/4
f 20/19/4 22/22/4 21/20/4
f 24/23/1 25/24/1 23/25/1
f 24/23/1 26/26/1 25/24/1
f 28/27/1 29/28/1 27/29/1
f 28/27/1 30/30/1 29/28/1
f 32/31/4 33/32/4 31/33/4
f 32/31/4 34/34/4 33/32/4
f 36/35/4 37/36/4 35/37/4
f 36/35/4 38/38/4 37/36/4
f 40/39/2 41/40/2 39/41/2
f 40/39/2 42/42/2 41/40/2
f 44/43/4 45/44/4 43/45/4
f 44/43/4 46/46/4 45/44/4
f 48/47/3 49/48/3 47/49/3
f 48/47/3 50/50/3 49/48/3
f 52/51/2 53/52/2 51/53/2
f 52/51/2 54/54/2 53/52/2
g clocktown_main.002_geom-03D75826.002_material-0392649D
usemtl material-0392649D
f 64/55/5 65/56/5 63/57/5
f 64/55/5 66/58/5 65/56/5
f 64/55/5 63/57/5 70/59/5
f 64/55/5 70/59/5 69/60/5
f 57/61/4 55/62/4 56/63/4
f 57/61/4 56/63/4 58/64/4
f 57/61/4 58/64/4 67/65/4
f 58/64/4 68/66/4 67/65/4
f 61/67/1 59/68/1 60/69/1
f 61/67/1 60/69/1 62/70/1
f 61/67/1 62/70/1 71/71/1
f 62/70/1 72/72/1 71/71/1
